<mxfile host="app.diagrams.net" agent="Mozilla/5.0 (Windows NT 10.0; Win64; x64; rv:136.0) Gecko/20100101 Firefox/136.0" version="26.2.12">
  <diagram name="Страница — 1" id="DP7TmNHtPNwdQ04ViJx4">
    <mxGraphModel dx="1723" dy="2095" grid="1" gridSize="10" guides="1" tooltips="1" connect="1" arrows="1" fold="1" page="1" pageScale="1" pageWidth="827" pageHeight="1169" math="0" shadow="0">
      <root>
        <mxCell id="0" />
        <mxCell id="1" parent="0" />
        <mxCell id="dLkgNgau4KQnL4T7qV0y-16" value="Запись к специалистам" style="shape=ellipse;html=1;dashed=0;whiteSpace=wrap;aspect=fixed;perimeter=ellipsePerimeter;" vertex="1" parent="1">
          <mxGeometry x="260" y="65" width="60" height="60" as="geometry" />
        </mxCell>
        <mxCell id="dLkgNgau4KQnL4T7qV0y-17" value="Пациент" style="html=1;dashed=0;whiteSpace=wrap;" vertex="1" parent="1">
          <mxGeometry x="50" y="70" width="100" height="50" as="geometry" />
        </mxCell>
        <mxCell id="dLkgNgau4KQnL4T7qV0y-18" value="&lt;div&gt;Данные&lt;/div&gt;&lt;div&gt;паспорта&lt;/div&gt;" style="endArrow=classic;html=1;rounded=0;" edge="1" parent="1" source="dLkgNgau4KQnL4T7qV0y-17" target="dLkgNgau4KQnL4T7qV0y-16">
          <mxGeometry width="50" height="50" relative="1" as="geometry">
            <mxPoint x="320" y="470" as="sourcePoint" />
            <mxPoint x="370" y="420" as="targetPoint" />
          </mxGeometry>
        </mxCell>
        <mxCell id="dLkgNgau4KQnL4T7qV0y-19" value="Заключение договора" style="shape=ellipse;html=1;dashed=0;whiteSpace=wrap;aspect=fixed;perimeter=ellipsePerimeter;" vertex="1" parent="1">
          <mxGeometry x="260" y="170" width="60" height="60" as="geometry" />
        </mxCell>
        <mxCell id="dLkgNgau4KQnL4T7qV0y-20" value="Клиент" style="html=1;dashed=0;whiteSpace=wrap;" vertex="1" parent="1">
          <mxGeometry x="50" y="175" width="100" height="50" as="geometry" />
        </mxCell>
        <mxCell id="dLkgNgau4KQnL4T7qV0y-21" value="&lt;div&gt;Данные&lt;/div&gt;&lt;div&gt;паспорта&lt;/div&gt;" style="endArrow=classic;html=1;rounded=0;" edge="1" parent="1" source="dLkgNgau4KQnL4T7qV0y-20" target="dLkgNgau4KQnL4T7qV0y-19">
          <mxGeometry width="50" height="50" relative="1" as="geometry">
            <mxPoint x="320" y="575" as="sourcePoint" />
            <mxPoint x="370" y="525" as="targetPoint" />
          </mxGeometry>
        </mxCell>
        <mxCell id="dLkgNgau4KQnL4T7qV0y-25" value="&lt;div&gt;Данные&lt;/div&gt;&lt;div&gt;карты&lt;/div&gt;" style="edgeStyle=orthogonalEdgeStyle;rounded=0;orthogonalLoop=1;jettySize=auto;html=1;" edge="1" parent="1" source="dLkgNgau4KQnL4T7qV0y-22" target="dLkgNgau4KQnL4T7qV0y-23">
          <mxGeometry relative="1" as="geometry" />
        </mxCell>
        <mxCell id="dLkgNgau4KQnL4T7qV0y-22" value="Плательщик" style="html=1;dashed=0;whiteSpace=wrap;" vertex="1" parent="1">
          <mxGeometry x="50" y="280" width="100" height="50" as="geometry" />
        </mxCell>
        <mxCell id="dLkgNgau4KQnL4T7qV0y-23" value="Прием платежей" style="shape=ellipse;html=1;dashed=0;whiteSpace=wrap;aspect=fixed;perimeter=ellipsePerimeter;" vertex="1" parent="1">
          <mxGeometry x="260" y="275" width="60" height="60" as="geometry" />
        </mxCell>
        <mxCell id="dLkgNgau4KQnL4T7qV0y-26" value="Файловое хранилище" style="html=1;dashed=0;whiteSpace=wrap;shape=partialRectangle;right=0;left=0;" vertex="1" parent="1">
          <mxGeometry x="430" y="370" width="100" height="30" as="geometry" />
        </mxCell>
        <mxCell id="dLkgNgau4KQnL4T7qV0y-28" value="Платежная информация" style="endArrow=classic;html=1;rounded=0;" edge="1" parent="1" source="dLkgNgau4KQnL4T7qV0y-23" target="dLkgNgau4KQnL4T7qV0y-26">
          <mxGeometry width="50" height="50" relative="1" as="geometry">
            <mxPoint x="320" y="470" as="sourcePoint" />
            <mxPoint x="370" y="420" as="targetPoint" />
          </mxGeometry>
        </mxCell>
        <mxCell id="dLkgNgau4KQnL4T7qV0y-30" value="Налоговая отчетность" style="shape=ellipse;html=1;dashed=0;whiteSpace=wrap;aspect=fixed;perimeter=ellipsePerimeter;" vertex="1" parent="1">
          <mxGeometry x="1030" y="375" width="60" height="60" as="geometry" />
        </mxCell>
        <mxCell id="dLkgNgau4KQnL4T7qV0y-33" value="&lt;div&gt;Вся&lt;/div&gt;&lt;div&gt;бухгалтерия&lt;/div&gt;" style="endArrow=classic;html=1;rounded=0;" edge="1" parent="1" source="dLkgNgau4KQnL4T7qV0y-26" target="dLkgNgau4KQnL4T7qV0y-57">
          <mxGeometry x="0.346" y="-8" width="50" height="50" relative="1" as="geometry">
            <mxPoint x="320" y="470" as="sourcePoint" />
            <mxPoint x="370" y="420" as="targetPoint" />
            <Array as="points">
              <mxPoint x="580" y="385" />
            </Array>
            <mxPoint as="offset" />
          </mxGeometry>
        </mxCell>
        <mxCell id="dLkgNgau4KQnL4T7qV0y-35" value="Сотрудник" style="html=1;dashed=0;whiteSpace=wrap;" vertex="1" parent="1">
          <mxGeometry x="50" y="450" width="100" height="50" as="geometry" />
        </mxCell>
        <mxCell id="dLkgNgau4KQnL4T7qV0y-37" value="Кадровый учет" style="shape=ellipse;html=1;dashed=0;whiteSpace=wrap;aspect=fixed;perimeter=ellipsePerimeter;" vertex="1" parent="1">
          <mxGeometry x="260" y="445" width="60" height="60" as="geometry" />
        </mxCell>
        <mxCell id="dLkgNgau4KQnL4T7qV0y-38" value="&lt;div&gt;Данные паспорта,&lt;/div&gt;&lt;div&gt;о работе&lt;/div&gt;&lt;div&gt;и о учебе&lt;/div&gt;" style="endArrow=classic;html=1;rounded=0;" edge="1" parent="1" source="dLkgNgau4KQnL4T7qV0y-35" target="dLkgNgau4KQnL4T7qV0y-37">
          <mxGeometry width="50" height="50" relative="1" as="geometry">
            <mxPoint x="390" y="470" as="sourcePoint" />
            <mxPoint x="440" y="420" as="targetPoint" />
          </mxGeometry>
        </mxCell>
        <mxCell id="dLkgNgau4KQnL4T7qV0y-40" value="Выплата зарплаты" style="shape=ellipse;html=1;dashed=0;whiteSpace=wrap;aspect=fixed;perimeter=ellipsePerimeter;" vertex="1" parent="1">
          <mxGeometry x="1030" y="460" width="60" height="60" as="geometry" />
        </mxCell>
        <mxCell id="dLkgNgau4KQnL4T7qV0y-41" value="&lt;div&gt;Данные&lt;/div&gt;&lt;div&gt;о зарплатах&lt;/div&gt;" style="endArrow=classic;html=1;rounded=0;" edge="1" parent="1" source="dLkgNgau4KQnL4T7qV0y-57" target="dLkgNgau4KQnL4T7qV0y-40">
          <mxGeometry x="0.6556" y="3" width="50" height="50" relative="1" as="geometry">
            <mxPoint x="150" y="554.4078947368421" as="sourcePoint" />
            <mxPoint x="410" y="400" as="targetPoint" />
            <Array as="points">
              <mxPoint x="950" y="405" />
            </Array>
            <mxPoint as="offset" />
          </mxGeometry>
        </mxCell>
        <mxCell id="dLkgNgau4KQnL4T7qV0y-42" value="Технический директор" style="html=1;dashed=0;whiteSpace=wrap;" vertex="1" parent="1">
          <mxGeometry x="50" y="630" width="100" height="50" as="geometry" />
        </mxCell>
        <mxCell id="dLkgNgau4KQnL4T7qV0y-43" value="Архитекту-рирование" style="shape=ellipse;html=1;dashed=0;whiteSpace=wrap;aspect=fixed;perimeter=ellipsePerimeter;" vertex="1" parent="1">
          <mxGeometry x="260" y="625" width="60" height="60" as="geometry" />
        </mxCell>
        <mxCell id="dLkgNgau4KQnL4T7qV0y-44" value="&lt;div&gt;Требоания&lt;/div&gt;&lt;div&gt;к системам&lt;/div&gt;" style="endArrow=classic;html=1;rounded=0;" edge="1" parent="1" source="dLkgNgau4KQnL4T7qV0y-42" target="dLkgNgau4KQnL4T7qV0y-43">
          <mxGeometry width="50" height="50" relative="1" as="geometry">
            <mxPoint x="360" y="450" as="sourcePoint" />
            <mxPoint x="410" y="400" as="targetPoint" />
          </mxGeometry>
        </mxCell>
        <mxCell id="dLkgNgau4KQnL4T7qV0y-45" value="Обслуживание сети и обордудовавния" style="shape=ellipse;html=1;dashed=0;whiteSpace=wrap;aspect=fixed;perimeter=ellipsePerimeter;" vertex="1" parent="1">
          <mxGeometry x="1290" y="300" width="60" height="60" as="geometry" />
        </mxCell>
        <mxCell id="dLkgNgau4KQnL4T7qV0y-46" value="Администратор сети" style="html=1;dashed=0;whiteSpace=wrap;" vertex="1" parent="1">
          <mxGeometry x="1010" y="305" width="100" height="50" as="geometry" />
        </mxCell>
        <mxCell id="dLkgNgau4KQnL4T7qV0y-50" value="&lt;div&gt;Архитектурные&lt;/div&gt;&lt;div&gt;схемы&lt;/div&gt;" style="endArrow=classic;html=1;rounded=0;" edge="1" parent="1" source="dLkgNgau4KQnL4T7qV0y-43" target="dLkgNgau4KQnL4T7qV0y-26">
          <mxGeometry width="50" height="50" relative="1" as="geometry">
            <mxPoint x="10" y="810" as="sourcePoint" />
            <mxPoint x="430" y="655" as="targetPoint" />
            <Array as="points">
              <mxPoint x="480" y="655" />
            </Array>
          </mxGeometry>
        </mxCell>
        <mxCell id="dLkgNgau4KQnL4T7qV0y-51" value="&lt;div&gt;Документация по оборудоанию&lt;/div&gt;&lt;div&gt;и сети&lt;/div&gt;" style="endArrow=classic;html=1;rounded=0;" edge="1" parent="1" source="dLkgNgau4KQnL4T7qV0y-26" target="dLkgNgau4KQnL4T7qV0y-46">
          <mxGeometry x="0.5406" y="-2" width="50" height="50" relative="1" as="geometry">
            <mxPoint x="480" y="670" as="sourcePoint" />
            <mxPoint x="290" y="740" as="targetPoint" />
            <Array as="points">
              <mxPoint x="580" y="385" />
            </Array>
            <mxPoint as="offset" />
          </mxGeometry>
        </mxCell>
        <mxCell id="dLkgNgau4KQnL4T7qV0y-53" value="&lt;div&gt;Информация&lt;/div&gt;&lt;div&gt;о сети&lt;/div&gt;&lt;div&gt;и оборудвании&lt;/div&gt;" style="endArrow=classic;html=1;rounded=0;" edge="1" parent="1" source="dLkgNgau4KQnL4T7qV0y-46" target="dLkgNgau4KQnL4T7qV0y-45">
          <mxGeometry width="50" height="50" relative="1" as="geometry">
            <mxPoint x="940" y="30" as="sourcePoint" />
            <mxPoint x="990" y="-20" as="targetPoint" />
          </mxGeometry>
        </mxCell>
        <mxCell id="dLkgNgau4KQnL4T7qV0y-55" value="Бизнес аналитик" style="html=1;dashed=0;whiteSpace=wrap;" vertex="1" parent="1">
          <mxGeometry x="840" y="270" width="100" height="50" as="geometry" />
        </mxCell>
        <mxCell id="dLkgNgau4KQnL4T7qV0y-57" value="Бухгалтерия" style="html=1;dashed=0;whiteSpace=wrap;" vertex="1" parent="1">
          <mxGeometry x="680" y="380" width="100" height="50" as="geometry" />
        </mxCell>
        <mxCell id="dLkgNgau4KQnL4T7qV0y-59" value="&lt;div&gt;Налоговая&lt;/div&gt;&lt;div&gt;информация&lt;/div&gt;" style="endArrow=classic;html=1;rounded=0;" edge="1" parent="1" source="dLkgNgau4KQnL4T7qV0y-57" target="dLkgNgau4KQnL4T7qV0y-30">
          <mxGeometry x="0.68" y="25" width="50" height="50" relative="1" as="geometry">
            <mxPoint x="670" y="720" as="sourcePoint" />
            <mxPoint x="720" y="670" as="targetPoint" />
            <mxPoint as="offset" />
          </mxGeometry>
        </mxCell>
        <mxCell id="dLkgNgau4KQnL4T7qV0y-60" value="Карточка сотрудника" style="endArrow=classic;html=1;rounded=0;" edge="1" parent="1" source="dLkgNgau4KQnL4T7qV0y-37" target="dLkgNgau4KQnL4T7qV0y-26">
          <mxGeometry width="50" height="50" relative="1" as="geometry">
            <mxPoint x="1010" y="580" as="sourcePoint" />
            <mxPoint x="1060" y="530" as="targetPoint" />
            <Array as="points">
              <mxPoint x="480" y="430" />
            </Array>
          </mxGeometry>
        </mxCell>
        <mxCell id="dLkgNgau4KQnL4T7qV0y-62" value="Начисление зарплаты" style="shape=ellipse;html=1;dashed=0;whiteSpace=wrap;aspect=fixed;perimeter=ellipsePerimeter;" vertex="1" parent="1">
          <mxGeometry x="720" y="470" width="60" height="60" as="geometry" />
        </mxCell>
        <mxCell id="dLkgNgau4KQnL4T7qV0y-63" value="Данные по зарплатам" style="endArrow=classic;html=1;rounded=0;" edge="1" parent="1" source="dLkgNgau4KQnL4T7qV0y-62" target="dLkgNgau4KQnL4T7qV0y-26">
          <mxGeometry width="50" height="50" relative="1" as="geometry">
            <mxPoint x="1010" y="580" as="sourcePoint" />
            <mxPoint x="1060" y="530" as="targetPoint" />
            <Array as="points">
              <mxPoint x="480" y="430" />
            </Array>
          </mxGeometry>
        </mxCell>
        <mxCell id="dLkgNgau4KQnL4T7qV0y-64" value="" style="endArrow=classic;html=1;rounded=0;" edge="1" parent="1" source="dLkgNgau4KQnL4T7qV0y-57" target="dLkgNgau4KQnL4T7qV0y-62">
          <mxGeometry width="50" height="50" relative="1" as="geometry">
            <mxPoint x="890" y="750" as="sourcePoint" />
            <mxPoint x="940" y="700" as="targetPoint" />
          </mxGeometry>
        </mxCell>
        <mxCell id="dLkgNgau4KQnL4T7qV0y-65" value="Подготовка документов для налоговых органов" style="shape=ellipse;html=1;dashed=0;whiteSpace=wrap;aspect=fixed;perimeter=ellipsePerimeter;" vertex="1" parent="1">
          <mxGeometry x="850" y="555" width="60" height="60" as="geometry" />
        </mxCell>
        <mxCell id="dLkgNgau4KQnL4T7qV0y-66" value="&lt;div&gt;Информация&lt;/div&gt;&lt;div&gt;о налогах&lt;/div&gt;" style="endArrow=classic;html=1;rounded=0;" edge="1" parent="1" source="dLkgNgau4KQnL4T7qV0y-65" target="dLkgNgau4KQnL4T7qV0y-26">
          <mxGeometry width="50" height="50" relative="1" as="geometry">
            <mxPoint x="1010" y="580" as="sourcePoint" />
            <mxPoint x="1060" y="530" as="targetPoint" />
            <Array as="points">
              <mxPoint x="480" y="500" />
            </Array>
          </mxGeometry>
        </mxCell>
        <mxCell id="dLkgNgau4KQnL4T7qV0y-67" value="&lt;div&gt;Налоговая&lt;/div&gt;&lt;div&gt;информация&lt;/div&gt;" style="endArrow=classic;html=1;rounded=0;" edge="1" parent="1" source="dLkgNgau4KQnL4T7qV0y-57" target="dLkgNgau4KQnL4T7qV0y-65">
          <mxGeometry width="50" height="50" relative="1" as="geometry">
            <mxPoint x="1010" y="580" as="sourcePoint" />
            <mxPoint x="1060" y="530" as="targetPoint" />
            <Array as="points">
              <mxPoint x="840" y="405" />
            </Array>
          </mxGeometry>
        </mxCell>
        <mxCell id="dLkgNgau4KQnL4T7qV0y-68" value="&lt;div&gt;Журнал приема пациентов,&lt;/div&gt;&lt;div&gt;учет пациентов,&lt;/div&gt;&lt;div&gt;учет платежей,&lt;/div&gt;&lt;div&gt;мед.карты,&lt;/div&gt;&lt;div&gt;учет анализов&lt;/div&gt;" style="endArrow=classic;html=1;rounded=0;" edge="1" parent="1" source="dLkgNgau4KQnL4T7qV0y-26" target="dLkgNgau4KQnL4T7qV0y-55">
          <mxGeometry x="0.5462" y="36" width="50" height="50" relative="1" as="geometry">
            <mxPoint x="360" y="570" as="sourcePoint" />
            <mxPoint x="410" y="520" as="targetPoint" />
            <Array as="points">
              <mxPoint x="580" y="385" />
            </Array>
            <mxPoint as="offset" />
          </mxGeometry>
        </mxCell>
        <mxCell id="dLkgNgau4KQnL4T7qV0y-69" value="Договор" style="endArrow=classic;html=1;rounded=0;" edge="1" parent="1" source="dLkgNgau4KQnL4T7qV0y-19" target="dLkgNgau4KQnL4T7qV0y-26">
          <mxGeometry x="-0.2365" y="3" width="50" height="50" relative="1" as="geometry">
            <mxPoint x="360" y="570" as="sourcePoint" />
            <mxPoint x="410" y="520" as="targetPoint" />
            <Array as="points">
              <mxPoint x="480" y="310" />
            </Array>
            <mxPoint as="offset" />
          </mxGeometry>
        </mxCell>
        <mxCell id="dLkgNgau4KQnL4T7qV0y-70" value="Запись на прием" style="endArrow=classic;html=1;rounded=0;" edge="1" parent="1" source="dLkgNgau4KQnL4T7qV0y-16" target="dLkgNgau4KQnL4T7qV0y-26">
          <mxGeometry x="-0.3569" y="-1" width="50" height="50" relative="1" as="geometry">
            <mxPoint x="360" y="570" as="sourcePoint" />
            <mxPoint x="410" y="520" as="targetPoint" />
            <Array as="points">
              <mxPoint x="480" y="230" />
            </Array>
            <mxPoint as="offset" />
          </mxGeometry>
        </mxCell>
        <mxCell id="dLkgNgau4KQnL4T7qV0y-71" value="Пациент" style="html=1;dashed=0;whiteSpace=wrap;" vertex="1" parent="1">
          <mxGeometry x="50" y="-30" width="100" height="50" as="geometry" />
        </mxCell>
        <mxCell id="dLkgNgau4KQnL4T7qV0y-73" value="Исследование анализов" style="shape=ellipse;html=1;dashed=0;whiteSpace=wrap;aspect=fixed;perimeter=ellipsePerimeter;" vertex="1" parent="1">
          <mxGeometry x="260" y="-35" width="60" height="60" as="geometry" />
        </mxCell>
        <mxCell id="dLkgNgau4KQnL4T7qV0y-74" value="Анализы" style="endArrow=classic;html=1;rounded=0;" edge="1" parent="1" source="dLkgNgau4KQnL4T7qV0y-71" target="dLkgNgau4KQnL4T7qV0y-73">
          <mxGeometry width="50" height="50" relative="1" as="geometry">
            <mxPoint x="360" y="410" as="sourcePoint" />
            <mxPoint x="410" y="360" as="targetPoint" />
          </mxGeometry>
        </mxCell>
        <mxCell id="dLkgNgau4KQnL4T7qV0y-75" value="Результаты анализов" style="endArrow=classic;html=1;rounded=0;" edge="1" parent="1" source="dLkgNgau4KQnL4T7qV0y-73" target="dLkgNgau4KQnL4T7qV0y-26">
          <mxGeometry x="-0.4992" y="4" width="50" height="50" relative="1" as="geometry">
            <mxPoint x="360" y="410" as="sourcePoint" />
            <mxPoint x="410" y="360" as="targetPoint" />
            <Array as="points">
              <mxPoint x="480" y="140" />
            </Array>
            <mxPoint as="offset" />
          </mxGeometry>
        </mxCell>
        <mxCell id="dLkgNgau4KQnL4T7qV0y-76" value="Пациент" style="html=1;dashed=0;whiteSpace=wrap;" vertex="1" parent="1">
          <mxGeometry x="50" y="-130" width="100" height="50" as="geometry" />
        </mxCell>
        <mxCell id="dLkgNgau4KQnL4T7qV0y-77" value="Прием у врача" style="shape=ellipse;html=1;dashed=0;whiteSpace=wrap;aspect=fixed;perimeter=ellipsePerimeter;" vertex="1" parent="1">
          <mxGeometry x="260" y="-135" width="60" height="60" as="geometry" />
        </mxCell>
        <mxCell id="dLkgNgau4KQnL4T7qV0y-79" value="&lt;div&gt;Информация&lt;/div&gt;&lt;div&gt;о заболеваниях&lt;/div&gt;" style="endArrow=classic;html=1;rounded=0;" edge="1" parent="1" source="dLkgNgau4KQnL4T7qV0y-76" target="dLkgNgau4KQnL4T7qV0y-77">
          <mxGeometry width="50" height="50" relative="1" as="geometry">
            <mxPoint x="250" y="390" as="sourcePoint" />
            <mxPoint x="300" y="340" as="targetPoint" />
          </mxGeometry>
        </mxCell>
        <mxCell id="dLkgNgau4KQnL4T7qV0y-80" value="&lt;div&gt;Медицинская&lt;/div&gt;&lt;div&gt;карта&lt;/div&gt;" style="endArrow=classic;html=1;rounded=0;" edge="1" parent="1" source="dLkgNgau4KQnL4T7qV0y-77" target="dLkgNgau4KQnL4T7qV0y-26">
          <mxGeometry x="-0.5955" y="-1" width="50" height="50" relative="1" as="geometry">
            <mxPoint x="900" y="400" as="sourcePoint" />
            <mxPoint x="950" y="350" as="targetPoint" />
            <Array as="points">
              <mxPoint x="480" y="40" />
            </Array>
            <mxPoint as="offset" />
          </mxGeometry>
        </mxCell>
        <mxCell id="dLkgNgau4KQnL4T7qV0y-81" value="Врач" style="html=1;dashed=0;whiteSpace=wrap;" vertex="1" parent="1">
          <mxGeometry x="680" y="180" width="100" height="50" as="geometry" />
        </mxCell>
        <mxCell id="dLkgNgau4KQnL4T7qV0y-82" value="Мед.карта" style="endArrow=classic;html=1;rounded=0;" edge="1" parent="1" source="dLkgNgau4KQnL4T7qV0y-26" target="dLkgNgau4KQnL4T7qV0y-81">
          <mxGeometry x="-0.0129" y="-3" width="50" height="50" relative="1" as="geometry">
            <mxPoint x="620" y="150" as="sourcePoint" />
            <mxPoint x="670" y="100" as="targetPoint" />
            <Array as="points">
              <mxPoint x="580" y="385" />
            </Array>
            <mxPoint as="offset" />
          </mxGeometry>
        </mxCell>
        <mxCell id="dLkgNgau4KQnL4T7qV0y-83" value="Налоговая" style="html=1;dashed=0;whiteSpace=wrap;shape=partialRectangle;right=0;left=0;" vertex="1" parent="1">
          <mxGeometry x="1270" y="390" width="100" height="30" as="geometry" />
        </mxCell>
        <mxCell id="dLkgNgau4KQnL4T7qV0y-84" value="Налоговые документы" style="endArrow=classic;html=1;rounded=0;" edge="1" parent="1" source="dLkgNgau4KQnL4T7qV0y-30" target="dLkgNgau4KQnL4T7qV0y-83">
          <mxGeometry x="0.1538" y="-5" width="50" height="50" relative="1" as="geometry">
            <mxPoint x="900" y="400" as="sourcePoint" />
            <mxPoint x="950" y="350" as="targetPoint" />
            <mxPoint as="offset" />
          </mxGeometry>
        </mxCell>
        <mxCell id="dLkgNgau4KQnL4T7qV0y-85" value="Счет сотрудника в банке" style="html=1;dashed=0;whiteSpace=wrap;shape=partialRectangle;right=0;left=0;" vertex="1" parent="1">
          <mxGeometry x="1270" y="475" width="100" height="30" as="geometry" />
        </mxCell>
        <mxCell id="dLkgNgau4KQnL4T7qV0y-86" value="Данные перевода" style="endArrow=classic;html=1;rounded=0;" edge="1" parent="1" source="dLkgNgau4KQnL4T7qV0y-40" target="dLkgNgau4KQnL4T7qV0y-85">
          <mxGeometry width="50" height="50" relative="1" as="geometry">
            <mxPoint x="900" y="400" as="sourcePoint" />
            <mxPoint x="950" y="350" as="targetPoint" />
          </mxGeometry>
        </mxCell>
        <mxCell id="dLkgNgau4KQnL4T7qV0y-88" value="Лечение" style="shape=ellipse;html=1;dashed=0;whiteSpace=wrap;aspect=fixed;perimeter=ellipsePerimeter;" vertex="1" parent="1">
          <mxGeometry x="920" y="65" width="60" height="60" as="geometry" />
        </mxCell>
        <mxCell id="dLkgNgau4KQnL4T7qV0y-89" value="Медицинские данные" style="endArrow=classic;html=1;rounded=0;" edge="1" parent="1" source="dLkgNgau4KQnL4T7qV0y-81" target="dLkgNgau4KQnL4T7qV0y-88">
          <mxGeometry width="50" height="50" relative="1" as="geometry">
            <mxPoint x="980" y="360" as="sourcePoint" />
            <mxPoint x="1030" y="310" as="targetPoint" />
          </mxGeometry>
        </mxCell>
        <mxCell id="dLkgNgau4KQnL4T7qV0y-90" value="Медицинские данные" style="endArrow=classic;html=1;rounded=0;" edge="1" parent="1" source="dLkgNgau4KQnL4T7qV0y-88" target="dLkgNgau4KQnL4T7qV0y-26">
          <mxGeometry x="0.1519" y="2" width="50" height="50" relative="1" as="geometry">
            <mxPoint x="710" y="20" as="sourcePoint" />
            <mxPoint x="760" y="-30" as="targetPoint" />
            <Array as="points">
              <mxPoint x="480" y="230" />
            </Array>
            <mxPoint as="offset" />
          </mxGeometry>
        </mxCell>
        <mxCell id="dLkgNgau4KQnL4T7qV0y-92" value="Обработка платежей" style="shape=ellipse;html=1;dashed=0;whiteSpace=wrap;aspect=fixed;perimeter=ellipsePerimeter;" vertex="1" parent="1">
          <mxGeometry x="1030" y="685" width="60" height="60" as="geometry" />
        </mxCell>
        <mxCell id="dLkgNgau4KQnL4T7qV0y-93" value="Данные о платежах" style="endArrow=classic;html=1;rounded=0;" edge="1" parent="1" source="dLkgNgau4KQnL4T7qV0y-92" target="dLkgNgau4KQnL4T7qV0y-26">
          <mxGeometry x="-0.2387" y="2" width="50" height="50" relative="1" as="geometry">
            <mxPoint x="980" y="360" as="sourcePoint" />
            <mxPoint x="1030" y="310" as="targetPoint" />
            <Array as="points">
              <mxPoint x="480" y="590" />
            </Array>
            <mxPoint as="offset" />
          </mxGeometry>
        </mxCell>
        <mxCell id="dLkgNgau4KQnL4T7qV0y-95" value="&lt;div&gt;Данные&lt;/div&gt;&lt;div&gt;о платежах&lt;/div&gt;" style="endArrow=classic;html=1;rounded=0;entryX=0;entryY=0;entryDx=0;entryDy=0;" edge="1" parent="1" source="dLkgNgau4KQnL4T7qV0y-57" target="dLkgNgau4KQnL4T7qV0y-92">
          <mxGeometry x="0.3571" y="-4" width="50" height="50" relative="1" as="geometry">
            <mxPoint x="980" y="360" as="sourcePoint" />
            <mxPoint x="1030" y="310" as="targetPoint" />
            <Array as="points">
              <mxPoint x="950" y="405" />
            </Array>
            <mxPoint as="offset" />
          </mxGeometry>
        </mxCell>
        <mxCell id="dLkgNgau4KQnL4T7qV0y-97" value="Анализ данных" style="shape=ellipse;html=1;dashed=0;whiteSpace=wrap;aspect=fixed;perimeter=ellipsePerimeter;" vertex="1" parent="1">
          <mxGeometry x="1030" y="-35" width="60" height="60" as="geometry" />
        </mxCell>
        <mxCell id="dLkgNgau4KQnL4T7qV0y-98" value="&lt;div&gt;Данные для&lt;/div&gt;&lt;div&gt;анализа&lt;/div&gt;" style="endArrow=classic;html=1;rounded=0;" edge="1" parent="1" source="dLkgNgau4KQnL4T7qV0y-55" target="dLkgNgau4KQnL4T7qV0y-97">
          <mxGeometry width="50" height="50" relative="1" as="geometry">
            <mxPoint x="950" y="360" as="sourcePoint" />
            <mxPoint x="1000" y="310" as="targetPoint" />
          </mxGeometry>
        </mxCell>
        <mxCell id="dLkgNgau4KQnL4T7qV0y-99" value="&lt;div&gt;Результаты анализа&lt;/div&gt;&lt;div&gt;данных&lt;/div&gt;" style="endArrow=classic;html=1;rounded=0;" edge="1" parent="1" source="dLkgNgau4KQnL4T7qV0y-97" target="dLkgNgau4KQnL4T7qV0y-26">
          <mxGeometry width="50" height="50" relative="1" as="geometry">
            <mxPoint x="950" y="360" as="sourcePoint" />
            <mxPoint x="1000" y="310" as="targetPoint" />
            <Array as="points">
              <mxPoint x="480" y="140" />
            </Array>
          </mxGeometry>
        </mxCell>
        <mxCell id="dLkgNgau4KQnL4T7qV0y-100" value="Результаты обслуживания" style="endArrow=classic;html=1;rounded=0;" edge="1" parent="1" source="dLkgNgau4KQnL4T7qV0y-45" target="dLkgNgau4KQnL4T7qV0y-26">
          <mxGeometry x="0.1318" width="50" height="50" relative="1" as="geometry">
            <mxPoint x="670" y="390" as="sourcePoint" />
            <mxPoint x="720" y="340" as="targetPoint" />
            <Array as="points">
              <mxPoint x="1410" y="330" />
              <mxPoint x="1420" y="870" />
              <mxPoint x="480" y="750" />
            </Array>
            <mxPoint as="offset" />
          </mxGeometry>
        </mxCell>
        <mxCell id="dLkgNgau4KQnL4T7qV0y-101" value="Медкарта - содержит медицинскую информацию" style="text;html=1;align=left;verticalAlign=middle;resizable=0;points=[];autosize=1;strokeColor=none;fillColor=none;" vertex="1" parent="1">
          <mxGeometry x="80" y="-332" width="300" height="30" as="geometry" />
        </mxCell>
        <mxCell id="dLkgNgau4KQnL4T7qV0y-102" value="&lt;div&gt;Медицинская информация:&lt;/div&gt;&lt;div&gt;- информация о заболеваниях&lt;/div&gt;&lt;div&gt;- информацию об анализах и их результатах&lt;/div&gt;&lt;div&gt;&lt;br&gt;&lt;/div&gt;" style="text;html=1;align=left;verticalAlign=middle;resizable=0;points=[];autosize=1;strokeColor=none;fillColor=none;" vertex="1" parent="1">
          <mxGeometry x="80" y="-410" width="270" height="70" as="geometry" />
        </mxCell>
        <mxCell id="dLkgNgau4KQnL4T7qV0y-103" value="&lt;div&gt;Вся бухгалтерия:&lt;/div&gt;&lt;div&gt;- договора&lt;/div&gt;&lt;div&gt;- платежная информация&lt;/div&gt;&lt;div&gt;- карточки сотрудника&lt;/div&gt;&lt;div&gt;- налоговая информация&lt;/div&gt;&lt;div&gt;- данные о зарплатах&lt;/div&gt;" style="text;html=1;align=left;verticalAlign=middle;resizable=0;points=[];autosize=1;strokeColor=none;fillColor=none;" vertex="1" parent="1">
          <mxGeometry x="80" y="-285" width="170" height="100" as="geometry" />
        </mxCell>
        <mxCell id="dLkgNgau4KQnL4T7qV0y-104" value="&lt;div&gt;Карточка сотрудника:&lt;/div&gt;&lt;div&gt;- паспортные данные&lt;/div&gt;&lt;div&gt;- телефон&lt;/div&gt;&lt;div&gt;- адрес электронной почты&lt;/div&gt;" style="text;html=1;align=left;verticalAlign=middle;resizable=0;points=[];autosize=1;strokeColor=none;fillColor=none;" vertex="1" parent="1">
          <mxGeometry x="80" y="-510" width="170" height="70" as="geometry" />
        </mxCell>
      </root>
    </mxGraphModel>
  </diagram>
</mxfile>
